# xmcd CD database file
# Copyright (C) 1993-1998 Ti Kan
#
# Track frame offsets:
#	150
#	16237
#	30705
#	44795
#	66245
#	86300
#	100565
#	114385
#	130325
#	153900
#	166740
#	182857
#	196545
#	215760
#
# Disc length: 3122 seconds
#
# Revision: 1
# Processed by: cddbd v1.4b41PL1 Copyright (c) Steve Scherf et al.
# Submitted via: NotifyCDPlayer(CDDB) 1.51.3
#
DISCID=b20c300e
DTITLE=Mark Furman Band - Cheap Blues Cliches
DYEAR=1900
DGENRE=
TTITLE0=Stupid Again
TTITLE1=She Ain't Nice to Me
TTITLE2=Golden Dawn
TTITLE3=Hard
TTITLE4=Lighten Up
TTITLE5=I Just Quit
TTITLE6=Can't Get Through to You
TTITLE7=Once I Had a Husband
TTITLE8=Trouble
TTITLE9=Read It and Weep
TTITLE10=Get Happy Or Get Out
TTITLE11=Chair Surf
TTITLE12=Dancing Or Dying
TTITLE13=Cheap Love
EXTD=Mark Furman:  guitars, vocals\nJohnny B.:  bass, vocals\nBilly Roldan: 
EXTD=drums\n\ncopyright 1996\n
EXTT0=
EXTT1=
EXTT2=
EXTT3=
EXTT4=
EXTT5=
EXTT6=
EXTT7=
EXTT8=
EXTT9=
EXTT10=
EXTT11=
EXTT12=
EXTT13=
PLAYORDER=
